<svg width="301" height="212" viewBox="0 0 301 212" fill="none" xmlns="http://www.w3.org/2000/svg">
<g filter="url(#filter0_d)">
<rect x="3" y="3" width="279.685" height="174.167" rx="5.82677" fill="white"/>
</g>
<g filter="url(#filter1_d)">
<path d="M3 8.82677C3 5.60873 5.60873 3 8.82677 3H276.858C280.076 3 282.685 5.60874 282.685 8.82677V21.5778H3V8.82677Z" fill="#00252E"/>
</g>
<rect x="23.9763" y="8.80554" width="58.2677" height="6.96667" rx="1.45669" fill="#E1E8EE"/>
<rect x="254.716" y="9.38611" width="9.32283" height="1.16111" rx="0.580556" fill="#D8D8D8"/>
<rect x="254.716" y="11.7083" width="9.32283" height="1.16111" rx="0.580556" fill="#D8D8D8"/>
<rect x="254.716" y="14.0305" width="9.32283" height="1.16111" rx="0.580556" fill="#D8D8D8"/>
<path fill-rule="evenodd" clip-rule="evenodd" d="M37.9606 70.925C45.6839 70.925 51.9448 64.6869 51.9448 56.9917C51.9448 49.2965 45.6839 43.0583 37.9606 43.0583C30.2373 43.0583 23.9763 49.2965 23.9763 56.9917C23.9763 64.6869 30.2373 70.925 37.9606 70.925Z" fill="url(#paint0_linear)"/>
<rect x="68.2598" y="46.5417" width="33.5039" height="4.64444" rx="0.874016" fill="#E1E8EE"/>
<rect x="68.2598" y="55.8306" width="116.535" height="2.32222" rx="0.874016" fill="#E1E8EE"/>
<rect x="68.2598" y="60.475" width="106.824" height="2.32222" rx="0.874016" fill="#E1E8EE"/>
<rect x="68.2598" y="65.1195" width="97.1129" height="2.32222" rx="0.874016" fill="#E1E8EE"/>
<path fill-rule="evenodd" clip-rule="evenodd" d="M202.275 60.475C204.206 60.475 205.771 58.9155 205.771 56.9917C205.771 55.0679 204.206 53.5084 202.275 53.5084C200.345 53.5084 198.779 55.0679 198.779 56.9917C198.779 58.9155 200.345 60.475 202.275 60.475Z" fill="#A7B9C8"/>
<path fill-rule="evenodd" clip-rule="evenodd" d="M220.921 60.475C222.852 60.475 224.417 58.9155 224.417 56.9917C224.417 55.0679 222.852 53.5084 220.921 53.5084C218.99 53.5084 217.425 55.0679 217.425 56.9917C217.425 58.9155 218.99 60.475 220.921 60.475Z" fill="#A7B9C8"/>
<path fill-rule="evenodd" clip-rule="evenodd" d="M211.598 60.475C213.529 60.475 215.094 58.9155 215.094 56.9917C215.094 55.0679 213.529 53.5084 211.598 53.5084C209.667 53.5084 208.102 55.0679 208.102 56.9917C208.102 58.9155 209.667 60.475 211.598 60.475Z" fill="#A7B9C8"/>
<path fill-rule="evenodd" clip-rule="evenodd" d="M230.244 60.475C232.174 60.475 233.74 58.9155 233.74 56.9917C233.74 55.0679 232.174 53.5084 230.244 53.5084C228.313 53.5084 226.748 55.0679 226.748 56.9917C226.748 58.9155 228.313 60.475 230.244 60.475Z" fill="#A7B9C8"/>
<path fill-rule="evenodd" clip-rule="evenodd" d="M239.567 60.475C241.498 60.475 243.063 58.9155 243.063 56.9917C243.063 55.0679 241.498 53.5084 239.567 53.5084C237.636 53.5084 236.071 55.0679 236.071 56.9917C236.071 58.9155 237.636 60.475 239.567 60.475Z" fill="#A7B9C8"/>
<path fill-rule="evenodd" clip-rule="evenodd" d="M37.0866 108.661C44.3271 108.661 50.1968 102.813 50.1968 95.5986C50.1968 88.3844 44.3271 82.5361 37.0866 82.5361C29.846 82.5361 23.9763 88.3844 23.9763 95.5986C23.9763 102.813 29.846 108.661 37.0866 108.661Z" fill="url(#paint1_linear)"/>
<rect x="67.3857" y="85.1486" width="33.5039" height="4.64444" rx="0.874016" fill="#E1E8EE"/>
<rect x="67.3857" y="94.4375" width="116.535" height="2.32222" rx="0.874016" fill="#E1E8EE"/>
<rect x="67.3857" y="99.0819" width="106.824" height="2.32222" rx="0.874016" fill="#E1E8EE"/>
<rect x="67.3857" y="103.726" width="97.1129" height="2.32222" rx="0.874016" fill="#E1E8EE"/>
<path fill-rule="evenodd" clip-rule="evenodd" d="M201.401 99.0819C203.332 99.0819 204.897 97.5224 204.897 95.5986C204.897 93.6748 203.332 92.1153 201.401 92.1153C199.471 92.1153 197.905 93.6748 197.905 95.5986C197.905 97.5224 199.471 99.0819 201.401 99.0819Z" fill="#A7B9C8"/>
<path fill-rule="evenodd" clip-rule="evenodd" d="M220.047 99.0819C221.978 99.0819 223.543 97.5224 223.543 95.5986C223.543 93.6748 221.978 92.1153 220.047 92.1153C218.116 92.1153 216.551 93.6748 216.551 95.5986C216.551 97.5224 218.116 99.0819 220.047 99.0819Z" fill="#A7B9C8"/>
<path fill-rule="evenodd" clip-rule="evenodd" d="M210.724 99.0819C212.655 99.0819 214.22 97.5224 214.22 95.5986C214.22 93.6748 212.655 92.1153 210.724 92.1153C208.793 92.1153 207.228 93.6748 207.228 95.5986C207.228 97.5224 208.793 99.0819 210.724 99.0819Z" fill="#A7B9C8"/>
<path fill-rule="evenodd" clip-rule="evenodd" d="M37.0866 150.171C44.3271 150.171 50.1968 144.323 50.1968 137.108C50.1968 129.894 44.3271 124.046 37.0866 124.046C29.846 124.046 23.9763 129.894 23.9763 137.108C23.9763 144.323 29.846 150.171 37.0866 150.171Z" fill="url(#paint2_linear)"/>
<rect x="67.3857" y="126.658" width="33.5039" height="4.64444" rx="0.874016" fill="#E1E8EE"/>
<rect x="67.3857" y="135.947" width="116.535" height="2.32222" rx="0.874016" fill="#E1E8EE"/>
<rect x="67.3857" y="140.592" width="106.824" height="2.32222" rx="0.874016" fill="#E1E8EE"/>
<rect x="67.3857" y="145.236" width="97.1129" height="2.32222" rx="0.874016" fill="#E1E8EE"/>
<path fill-rule="evenodd" clip-rule="evenodd" d="M201.401 140.592C203.332 140.592 204.897 139.032 204.897 137.108C204.897 135.185 203.332 133.625 201.401 133.625C199.471 133.625 197.905 135.185 197.905 137.108C197.905 139.032 199.471 140.592 201.401 140.592Z" fill="#A7B9C8"/>
<path fill-rule="evenodd" clip-rule="evenodd" d="M220.047 140.592C221.978 140.592 223.543 139.032 223.543 137.108C223.543 135.185 221.978 133.625 220.047 133.625C218.116 133.625 216.551 135.185 216.551 137.108C216.551 139.032 218.116 140.592 220.047 140.592Z" fill="#A7B9C8"/>
<path fill-rule="evenodd" clip-rule="evenodd" d="M210.724 140.592C212.655 140.592 214.22 139.032 214.22 137.108C214.22 135.185 212.655 133.625 210.724 133.625C208.793 133.625 207.228 135.185 207.228 137.108C207.228 139.032 208.793 140.592 210.724 140.592Z" fill="#A7B9C8"/>
<path fill-rule="evenodd" clip-rule="evenodd" d="M229.37 140.592C231.3 140.592 232.866 139.032 232.866 137.108C232.866 135.185 231.3 133.625 229.37 133.625C227.439 133.625 225.874 135.185 225.874 137.108C225.874 139.032 227.439 140.592 229.37 140.592Z" fill="#A7B9C8"/>
<g filter="url(#filter2_d)">
<path fill-rule="evenodd" clip-rule="evenodd" d="M205.771 68.35C205.771 65.6039 207.998 63.3778 210.744 63.3778H294.028C296.774 63.3778 299 65.6039 299 68.35V207.028C299 209.774 296.774 212 294.028 212H210.744C207.998 212 205.771 209.774 205.771 207.028V68.35Z" fill="white"/>
</g>
<g filter="url(#filter3_d)">
<path fill-rule="evenodd" clip-rule="evenodd" d="M205.771 68.35C205.771 65.6039 207.998 63.3778 210.744 63.3778H294.028C296.774 63.3778 299 65.6039 299 68.35V79.2308H205.771V68.35Z" fill="#00252E"/>
</g>
<rect x="215.133" y="68.8273" width="30.2992" height="5.94489" rx="1.24304" fill="#E1E8EE"/>
<rect x="281.1" y="69.3227" width="7.95549" height="0.990815" rx="0.495407" fill="#D8D8D8"/>
<rect x="281.1" y="71.3043" width="7.95549" height="0.990815" rx="0.495407" fill="#D8D8D8"/>
<rect x="281.1" y="73.2859" width="7.95549" height="0.990815" rx="0.495407" fill="#D8D8D8"/>
<path fill-rule="evenodd" clip-rule="evenodd" d="M219.464 103.436C221.878 103.436 223.834 101.487 223.834 99.0819C223.834 96.6772 221.878 94.7278 219.464 94.7278C217.051 94.7278 215.094 96.6772 215.094 99.0819C215.094 101.487 217.051 103.436 219.464 103.436Z" fill="url(#paint3_linear)"/>
<rect x="228.496" y="95.5986" width="16.752" height="1.54815" rx="0.267918" fill="#E1E8EE"/>
<rect x="228.496" y="98.6949" width="58.2677" height="0.774074" rx="0.267918" fill="#E1E8EE"/>
<rect x="228.496" y="100.243" width="53.4121" height="0.774074" rx="0.267918" fill="#E1E8EE"/>
<rect x="228.496" y="101.791" width="48.5564" height="0.774074" rx="0.267918" fill="#E1E8EE"/>
<path fill-rule="evenodd" clip-rule="evenodd" d="M219.464 143.494C221.878 143.494 223.834 141.545 223.834 139.14C223.834 136.736 221.878 134.786 219.464 134.786C217.051 134.786 215.094 136.736 215.094 139.14C215.094 141.545 217.051 143.494 219.464 143.494Z" fill="url(#paint4_linear)"/>
<rect x="228.496" y="135.657" width="16.752" height="1.54815" rx="0.267918" fill="#E1E8EE"/>
<rect x="228.496" y="138.753" width="58.2677" height="0.774074" rx="0.267918" fill="#E1E8EE"/>
<rect x="228.496" y="140.301" width="53.4121" height="0.774074" rx="0.267918" fill="#E1E8EE"/>
<rect x="228.496" y="141.85" width="48.5564" height="0.774074" rx="0.267918" fill="#E1E8EE"/>
<rect x="228.496" y="108.951" width="16.752" height="1.54815" rx="0.267918" fill="#E1E8EE"/>
<rect x="228.496" y="112.048" width="58.2677" height="0.774074" rx="0.267918" fill="#E1E8EE"/>
<rect x="228.496" y="113.596" width="53.4121" height="0.774074" rx="0.267918" fill="#E1E8EE"/>
<rect x="228.496" y="115.144" width="48.5564" height="0.774074" rx="0.267918" fill="#E1E8EE"/>
<path fill-rule="evenodd" clip-rule="evenodd" d="M219.464 116.789C221.878 116.789 223.834 114.839 223.834 112.435C223.834 110.03 221.878 108.081 219.464 108.081C217.051 108.081 215.094 110.03 215.094 112.435C215.094 114.839 217.051 116.789 219.464 116.789Z" fill="url(#paint5_linear)"/>
<rect x="228.496" y="149.01" width="16.752" height="1.54815" rx="0.267918" fill="#E1E8EE"/>
<rect x="228.496" y="152.106" width="58.2677" height="0.774074" rx="0.267918" fill="#E1E8EE"/>
<rect x="228.496" y="153.654" width="53.4121" height="0.774074" rx="0.267918" fill="#E1E8EE"/>
<rect x="228.496" y="155.202" width="48.5564" height="0.774074" rx="0.267918" fill="#E1E8EE"/>
<path fill-rule="evenodd" clip-rule="evenodd" d="M219.464 156.847C221.878 156.847 223.834 154.898 223.834 152.493C223.834 150.088 221.878 148.139 219.464 148.139C217.051 148.139 215.094 150.088 215.094 152.493C215.094 154.898 217.051 156.847 219.464 156.847Z" fill="url(#paint6_linear)"/>
<rect x="228.496" y="122.304" width="16.752" height="1.54815" rx="0.267918" fill="#E1E8EE"/>
<rect x="228.496" y="125.4" width="58.2677" height="0.774074" rx="0.267918" fill="#E1E8EE"/>
<rect x="228.496" y="126.949" width="53.4121" height="0.774074" rx="0.267918" fill="#E1E8EE"/>
<rect x="228.496" y="128.497" width="48.5564" height="0.774074" rx="0.267918" fill="#E1E8EE"/>
<path fill-rule="evenodd" clip-rule="evenodd" d="M219.464 130.142C221.878 130.142 223.834 128.192 223.834 125.788C223.834 123.383 221.878 121.433 219.464 121.433C217.051 121.433 215.094 123.383 215.094 125.788C215.094 128.192 217.051 130.142 219.464 130.142Z" fill="url(#paint7_linear)"/>
<rect x="228.496" y="162.363" width="16.752" height="1.54815" rx="0.267918" fill="#E1E8EE"/>
<rect x="228.496" y="165.459" width="58.2677" height="0.774074" rx="0.267918" fill="#E1E8EE"/>
<rect x="228.496" y="167.007" width="53.4121" height="0.774074" rx="0.267918" fill="#E1E8EE"/>
<rect x="228.496" y="168.555" width="48.5564" height="0.774074" rx="0.267918" fill="#E1E8EE"/>
<path fill-rule="evenodd" clip-rule="evenodd" d="M219.464 170.2C221.878 170.2 223.834 168.251 223.834 165.846C223.834 163.441 221.878 161.492 219.464 161.492C217.051 161.492 215.094 163.441 215.094 165.846C215.094 168.251 217.051 170.2 219.464 170.2Z" fill="url(#paint8_linear)"/>
<path fill-rule="evenodd" clip-rule="evenodd" d="M219.464 183.553C221.878 183.553 223.834 181.603 223.834 179.199C223.834 176.794 221.878 174.844 219.464 174.844C217.051 174.844 215.094 176.794 215.094 179.199C215.094 181.603 217.051 183.553 219.464 183.553Z" fill="url(#paint9_linear)"/>
<rect x="228.496" y="175.715" width="16.752" height="1.54815" rx="0.267918" fill="#E1E8EE"/>
<rect x="228.496" y="178.812" width="58.2677" height="0.774074" rx="0.267918" fill="#E1E8EE"/>
<rect x="228.496" y="180.36" width="53.4121" height="0.774074" rx="0.267918" fill="#E1E8EE"/>
<rect x="228.496" y="181.908" width="48.5564" height="0.774074" rx="0.267918" fill="#E1E8EE"/>
<rect x="228.496" y="189.068" width="16.752" height="1.54815" rx="0.267918" fill="#E1E8EE"/>
<rect x="228.496" y="192.164" width="58.2677" height="0.774074" rx="0.267918" fill="#E1E8EE"/>
<rect x="228.496" y="193.713" width="53.4121" height="0.774074" rx="0.267918" fill="#E1E8EE"/>
<rect x="228.496" y="195.261" width="48.5564" height="0.774074" rx="0.267918" fill="#E1E8EE"/>
<path fill-rule="evenodd" clip-rule="evenodd" d="M219.464 196.906C221.878 196.906 223.834 194.956 223.834 192.551C223.834 190.147 221.878 188.197 219.464 188.197C217.051 188.197 215.094 190.147 215.094 192.551C215.094 194.956 217.051 196.906 219.464 196.906Z" fill="url(#paint10_linear)"/>
<defs>
<filter id="filter0_d" x="0" y="0" width="285.685" height="180.167" filterUnits="userSpaceOnUse" color-interpolation-filters="sRGB">
<feFlood flood-opacity="0" result="BackgroundImageFix"/>
<feColorMatrix in="SourceAlpha" type="matrix" values="0 0 0 0 0 0 0 0 0 0 0 0 0 0 0 0 0 0 127 0"/>
<feOffset/>
<feGaussianBlur stdDeviation="1.5"/>
<feColorMatrix type="matrix" values="0 0 0 0 0 0 0 0 0 0.145098 0 0 0 0 0.180392 0 0 0 0.181839 0"/>
<feBlend mode="normal" in2="BackgroundImageFix" result="effect1_dropShadow"/>
<feBlend mode="normal" in="SourceGraphic" in2="effect1_dropShadow" result="shape"/>
</filter>
<filter id="filter1_d" x="0" y="0" width="285.685" height="24.5778" filterUnits="userSpaceOnUse" color-interpolation-filters="sRGB">
<feFlood flood-opacity="0" result="BackgroundImageFix"/>
<feColorMatrix in="SourceAlpha" type="matrix" values="0 0 0 0 0 0 0 0 0 0 0 0 0 0 0 0 0 0 127 0"/>
<feOffset/>
<feGaussianBlur stdDeviation="1.5"/>
<feColorMatrix type="matrix" values="0 0 0 0 0 0 0 0 0 0.145098 0 0 0 0 0.180392 0 0 0 0.181839 0"/>
<feBlend mode="normal" in2="BackgroundImageFix" result="effect1_dropShadow"/>
<feBlend mode="normal" in="SourceGraphic" in2="effect1_dropShadow" result="shape"/>
</filter>
<filter id="filter2_d" x="203.771" y="61.3778" width="97.2283" height="152.622" filterUnits="userSpaceOnUse" color-interpolation-filters="sRGB">
<feFlood flood-opacity="0" result="BackgroundImageFix"/>
<feColorMatrix in="SourceAlpha" type="matrix" values="0 0 0 0 0 0 0 0 0 0 0 0 0 0 0 0 0 0 127 0"/>
<feOffset/>
<feGaussianBlur stdDeviation="1"/>
<feColorMatrix type="matrix" values="0 0 0 0 0 0 0 0 0 0.145098 0 0 0 0 0.180392 0 0 0 0.181839 0"/>
<feBlend mode="normal" in2="BackgroundImageFix" result="effect1_dropShadow"/>
<feBlend mode="normal" in="SourceGraphic" in2="effect1_dropShadow" result="shape"/>
</filter>
<filter id="filter3_d" x="203.771" y="61.3778" width="97.2283" height="19.853" filterUnits="userSpaceOnUse" color-interpolation-filters="sRGB">
<feFlood flood-opacity="0" result="BackgroundImageFix"/>
<feColorMatrix in="SourceAlpha" type="matrix" values="0 0 0 0 0 0 0 0 0 0 0 0 0 0 0 0 0 0 127 0"/>
<feOffset/>
<feGaussianBlur stdDeviation="1"/>
<feColorMatrix type="matrix" values="0 0 0 0 0 0 0 0 0 0.145098 0 0 0 0 0.180392 0 0 0 0.181839 0"/>
<feBlend mode="normal" in2="BackgroundImageFix" result="effect1_dropShadow"/>
<feBlend mode="normal" in="SourceGraphic" in2="effect1_dropShadow" result="shape"/>
</filter>
<linearGradient id="paint0_linear" x1="8.29369" y1="45.352" x2="25.3011" y2="84.9029" gradientUnits="userSpaceOnUse">
<stop stop-color="#FAD961"/>
<stop offset="1" stop-color="#FF52C1"/>
</linearGradient>
<linearGradient id="paint1_linear" x1="23.9763" y1="82.5361" x2="23.9763" y2="108.661" gradientUnits="userSpaceOnUse">
<stop stop-color="#00C7FA"/>
<stop offset="1" stop-color="#007DFA"/>
</linearGradient>
<linearGradient id="paint2_linear" x1="16.9888" y1="132.044" x2="32.9532" y2="161.155" gradientUnits="userSpaceOnUse">
<stop stop-color="#FF52C1"/>
<stop offset="1" stop-color="#9952FF"/>
</linearGradient>
<linearGradient id="paint3_linear" x1="210.193" y1="95.4445" x2="215.508" y2="107.804" gradientUnits="userSpaceOnUse">
<stop stop-color="#FAD961"/>
<stop offset="1" stop-color="#FF52C1"/>
</linearGradient>
<linearGradient id="paint4_linear" x1="210.193" y1="135.503" x2="215.508" y2="147.863" gradientUnits="userSpaceOnUse">
<stop stop-color="#FAD961"/>
<stop offset="1" stop-color="#FF52C1"/>
</linearGradient>
<linearGradient id="paint5_linear" x1="215.094" y1="108.081" x2="215.094" y2="116.789" gradientUnits="userSpaceOnUse">
<stop stop-color="#00C7FA"/>
<stop offset="1" stop-color="#007DFA"/>
</linearGradient>
<linearGradient id="paint6_linear" x1="215.094" y1="148.139" x2="215.094" y2="156.847" gradientUnits="userSpaceOnUse">
<stop stop-color="#00C7FA"/>
<stop offset="1" stop-color="#007DFA"/>
</linearGradient>
<linearGradient id="paint7_linear" x1="212.765" y1="124.099" x2="218.087" y2="133.803" gradientUnits="userSpaceOnUse">
<stop stop-color="#FF52C1"/>
<stop offset="1" stop-color="#9952FF"/>
</linearGradient>
<linearGradient id="paint8_linear" x1="212.765" y1="164.158" x2="218.087" y2="173.861" gradientUnits="userSpaceOnUse">
<stop stop-color="#FF52C1"/>
<stop offset="1" stop-color="#9952FF"/>
</linearGradient>
<linearGradient id="paint9_linear" x1="210.193" y1="175.561" x2="215.508" y2="187.921" gradientUnits="userSpaceOnUse">
<stop stop-color="#FAD961"/>
<stop offset="1" stop-color="#FF52C1"/>
</linearGradient>
<linearGradient id="paint10_linear" x1="215.094" y1="188.197" x2="215.094" y2="196.906" gradientUnits="userSpaceOnUse">
<stop stop-color="#00C7FA"/>
<stop offset="1" stop-color="#007DFA"/>
</linearGradient>
</defs>
</svg>
